{"title":"Frisson.des.Collines.2011.DVDRip.XviD.AC3.HORiZON-ArtSubs","uid":7611859,"size":1469205144,"categoryP":"video","categoryS":"movies","magnet":"?xt=urn:btih:d04a37a8d3b59c6c89a60962c46c4606e9089fe4&amp;dn=Frisson.des.Collines.2011.DVDRip.XviD.AC3.HORiZON-ArtSubs&amp;tr=udp%3A%2F%2Ftracker.openbittorrent.com%3A80&amp;tr=udp%3A%2F%2Fopen.demonii.com%3A1337&amp;tr=udp%3A%2F%2Ftracker.coppersurfer.tk%3A6969&amp;tr=udp%3A%2F%2Fexodus.desync.com%3A6969","seeders":1,"leechers":0,"uploader":"artsubs","files":-1,"time":1347089364,"description":"Plot: Even in rural Quebec in 1969 things were changing. A twelve year old boy, in love with his attractive teacher decides to fulfill his dream of seeing Jimi Hendrix in Woodstock with his father. But life decides otherwise. His father dies, causing his mother to lose grip with reality. His sister reciprocally falls in love with the village's priest, his best friend is repeatedly beaten by his father and the new teacher appeals more to his tastes than a young girl about his age. Will he succeed?\n\nAudio: French\n\nSubtitle: ENGLISH.\n\nIMDB: http://www.imdb.com/title/tt1466570/\n\n\nGeneral\nComplete name                    : Frisson.des.Collines.2011.DVDRip.XviD.AC3.HORiZON-ArtSubs\nFormat                           : AVI\nFormat/Info                      : Audio Video Interleave\nFile size                        : 1.37 GiB\nDuration                         : 1h 43mn\nOverall bit rate                 : 1 900 Kbps\nWriting application              : FairUse Wizard - http://fairusewizard.com\nWriting library                  : The best and REALLY easy backup tool\n\nVideo\nID                               : 0\nFormat                           : MPEG-4 Visual\nFormat profile                   : Advanced Simple@L5\nFormat settings, BVOP            : Yes\nFormat settings, QPel            : No\nFormat settings, GMC             : No warppoints\nFormat settings, Matrix          : Default (H.263)\nMuxing mode                      : Packed bitstream\nCodec ID                         : XVID\nCodec ID/Hint                    : XviD\nDuration                         : 1h 43mn\nBit rate                         : 1 443 Kbps\nWidth                            : 672 pixels\nHeight                           : 368 pixels\nDisplay aspect ratio             : 16:9\nFrame rate                       : 23.976 fps\nColor space                      : YUV\nChroma subsampling               : 4:2:0\nBit depth                        : 8 bits\nScan type                        : Progressive\nCompression mode                 : Lossy\nBits/(Pixel*Frame)               : 0.243\nStream size                      : 1.04 GiB (76%)\nWriting library                  : XviD 1.1.0 (UTC 2005-11-22)\n\nAudio\nID                               : 1\nFormat                           : AC-3\nFormat/Info                      : Audio Coding 3\nMode extension                   : CM (complete main)\nCodec ID                         : 2000\nDuration                         : 1h 43mn\nBit rate mode                    : Constant\nBit rate                         : 448 Kbps\nChannel(s)                       : 6 channels\nChannel positions                : Front: L C R, Side: L R, LFE\nSampling rate                    : 48.0 KHz\nBit depth                        : 16 bits\nCompression mode                 : Lossy\nStream size                      : 330 MiB (24%)\nAlignment                        : Split accross interleaves\nInterleave, duration             : 42 ms (1.00 video frame)\nInterleave, preload duration     : 500 ms\n","torrent":{"xt":"urn:btih:d04a37a8d3b59c6c89a60962c46c4606e9089fe4","amp;dn":"Frisson.des.Collines.2011.DVDRip.XviD.AC3.HORiZON-ArtSubs","amp;tr":["udp%3A%2F%2Ftracker.openbittorrent.com%3A80","udp%3A%2F%2Fopen.demonii.com%3A1337","udp%3A%2F%2Ftracker.coppersurfer.tk%3A6969","udp%3A%2F%2Fexodus.desync.com%3A6969"],"infoHash":"d04a37a8d3b59c6c89a60962c46c4606e9089fe4","infoHashBuffer":{"type":"Buffer","data":[208,74,55,168,211,181,156,108,137,166,9,98,196,108,70,6,233,8,159,228]},"announce":[],"urlList":[]}}